<svg width="95" height="72" viewBox="0 0 95 72" fill="none" xmlns="http://www.w3.org/2000/svg">
<path d="M86.566 65.7934C92.0537 60.0343 95 53.575 95 43.1042C95 24.679 81.9096 8.16497 62.8734 2.8086e-06L58.1156 7.25417C75.8839 16.7509 79.3575 29.0749 80.7428 36.8448C77.8818 35.3815 74.1364 34.8709 70.4655 35.2078C60.8542 36.0867 53.2781 43.8833 53.2781 53.575C53.2781 58.4616 55.2427 63.148 58.7396 66.6035C62.2368 70.0588 66.9798 72 71.9252 72C77.642 72 83.1084 69.4205 86.566 65.7934ZM33.2881 65.7934C38.7757 60.0343 41.7221 53.575 41.7221 43.1042C41.7221 24.679 28.6317 8.16498 9.5955 7.4663e-06L4.83771 7.25418C22.606 16.7509 26.0796 29.0749 27.4649 36.8448C24.6039 35.3815 20.8583 34.8709 17.1876 35.2078C7.57612 36.0868 -3.793e-06 43.8833 -2.94572e-06 53.575C-2.51852e-06 58.4616 1.96459 63.148 5.46175 66.6035C8.95869 70.0588 13.7019 72 18.6474 72C24.3642 72 29.8305 69.4206 33.2881 65.7934Z" fill="#7839EE" fill-opacity="0.05"/>
</svg>
