<svg width="320" height="40" viewBox="0 0 320 40" fill="none" xmlns="http://www.w3.org/2000/svg">
<path d="M58.3262 35.2451V4.28516H78.6464V8.98659H63.9859V17.3917H77.5938V22.0932H63.9859V30.5437H78.7684V35.2451H58.3262Z" fill="#3F3F3F"/>
<path d="M90.1285 21.6397V35.2451H84.6061V12.0251H89.8845V15.9707H90.1591C90.6981 14.6706 91.5575 13.6376 92.7372 12.8717C93.9271 12.1058 95.3968 11.7228 97.146 11.7228C98.7631 11.7228 100.172 12.0655 101.372 12.7508C102.582 13.4361 103.518 14.4288 104.179 15.7288C104.85 17.0289 105.181 18.6061 105.17 20.4605V35.2451H99.6479V21.3071C99.6479 19.755 99.2411 18.5406 98.4275 17.6638C97.624 16.787 96.5104 16.3486 95.0866 16.3486C94.1204 16.3486 93.261 16.5603 92.5084 16.9836C91.766 17.3968 91.1812 17.9964 90.754 18.7825C90.337 19.5686 90.1285 20.521 90.1285 21.6397Z" fill="#3F3F3F"/>
<path d="M122.915 12.0251V16.2579H109.444V12.0251H122.915ZM112.77 6.46203H118.293V28.261C118.293 28.9967 118.404 29.561 118.628 29.9541C118.862 30.3371 119.167 30.5991 119.543 30.7402C119.92 30.8813 120.337 30.9518 120.794 30.9518C121.14 30.9518 121.455 30.9266 121.74 30.8762C122.035 30.8258 122.259 30.7805 122.411 30.7402L123.342 35.0183C123.047 35.1191 122.625 35.23 122.076 35.3509C121.537 35.4718 120.876 35.5424 120.093 35.5626C118.709 35.6029 117.464 35.3963 116.355 34.9428C115.247 34.4792 114.367 33.7636 113.716 32.7961C113.075 31.8286 112.76 30.6192 112.77 29.168V6.46203Z" fill="#3F3F3F"/>
<path d="M127.963 35.2451V12.0251H133.318V15.8951H133.562C133.989 14.5547 134.721 13.5217 135.759 12.7961C136.806 12.0604 138.001 11.6926 139.344 11.6926C139.649 11.6926 139.989 11.7077 140.366 11.7379C140.752 11.7581 141.073 11.7933 141.327 11.8437V16.8777C141.093 16.7971 140.722 16.7266 140.213 16.6661C139.715 16.5956 139.232 16.5603 138.764 16.5603C137.757 16.5603 136.852 16.777 136.048 17.2103C135.255 17.6336 134.63 18.2232 134.172 18.979C133.714 19.7349 133.486 20.6066 133.486 21.5943V35.2451H127.963Z" fill="#3F3F3F"/>
<path d="M154.682 35.6986C152.393 35.6986 150.41 35.1997 148.732 34.202C147.054 33.2043 145.752 31.8085 144.827 30.0146C143.911 28.2207 143.454 26.1244 143.454 23.7258C143.454 21.3272 143.911 19.2259 144.827 17.422C145.752 15.618 147.054 14.2171 148.732 13.2194C150.41 12.2217 152.393 11.7228 154.682 11.7228C156.97 11.7228 158.953 12.2217 160.631 13.2194C162.309 14.2171 163.606 15.618 164.521 17.422C165.447 19.2259 165.91 21.3272 165.91 23.7258C165.91 26.1244 165.447 28.2207 164.521 30.0146C163.606 31.8085 162.309 33.2043 160.631 34.202C158.953 35.1997 156.97 35.6986 154.682 35.6986ZM154.712 31.3146C155.953 31.3146 156.99 30.977 157.824 30.3018C158.658 29.6165 159.279 28.6994 159.685 27.5505C160.102 26.4016 160.311 25.1216 160.311 23.7107C160.311 22.2897 160.102 21.0047 159.685 19.8558C159.279 18.6968 158.658 17.7747 157.824 17.0894C156.99 16.4041 155.953 16.0614 154.712 16.0614C153.441 16.0614 152.383 16.4041 151.539 17.0894C150.705 17.7747 150.08 18.6968 149.663 19.8558C149.256 21.0047 149.052 22.2897 149.052 23.7107C149.052 25.1216 149.256 26.4016 149.663 27.5505C150.08 28.6994 150.705 29.6165 151.539 30.3018C152.383 30.977 153.441 31.3146 154.712 31.3146Z" fill="#3F3F3F"/>
<path d="M171.27 35.2451V4.28516H176.93V30.5437H190.691V35.2451H171.27Z" fill="#3F3F3F"/>
<path d="M202.531 35.7137C201.046 35.7137 199.709 35.4517 198.519 34.9276C197.339 34.3935 196.404 33.6074 195.712 32.5694C195.031 31.5313 194.69 30.2514 194.69 28.7296C194.69 27.4194 194.934 26.336 195.422 25.4794C195.91 24.6228 196.577 23.9375 197.421 23.4235C198.265 22.9095 199.216 22.5215 200.273 22.2595C201.341 21.9873 202.445 21.7908 203.584 21.6699C204.957 21.5288 206.071 21.4028 206.925 21.292C207.779 21.171 208.4 20.9896 208.786 20.7477C209.183 20.4958 209.381 20.1078 209.381 19.5837V19.493C209.381 18.3542 209.04 17.4724 208.359 16.8475C207.677 16.2227 206.696 15.9102 205.415 15.9102C204.062 15.9102 202.989 16.2025 202.196 16.787C201.413 17.3716 200.884 18.0619 200.609 18.8581L195.453 18.1325C195.86 16.7215 196.531 15.5424 197.467 14.5951C198.402 13.6376 199.546 12.9221 200.899 12.4484C202.252 11.9647 203.747 11.7228 205.384 11.7228C206.513 11.7228 207.637 11.8538 208.756 12.1158C209.874 12.3779 210.896 12.8112 211.822 13.4159C212.747 14.0105 213.49 14.8218 214.049 15.8498C214.619 16.8777 214.903 18.1627 214.903 19.7047V35.2451H209.595V32.0554H209.411C209.076 32.7004 208.603 33.3051 207.993 33.8694C207.393 34.4237 206.635 34.8722 205.72 35.2149C204.815 35.5474 203.752 35.7137 202.531 35.7137ZM203.965 31.6926C205.074 31.6926 206.035 31.4759 206.849 31.0425C207.662 30.5991 208.288 30.0146 208.725 29.2889C209.173 28.5633 209.396 27.7722 209.396 26.9155V24.1793C209.223 24.3204 208.928 24.4514 208.511 24.5724C208.105 24.6933 207.647 24.7991 207.138 24.8898C206.63 24.9805 206.126 25.0612 205.628 25.1317C205.13 25.2023 204.698 25.2627 204.331 25.3131C203.508 25.424 202.77 25.6054 202.119 25.8573C201.469 26.1093 200.955 26.462 200.579 26.9155C200.202 27.359 200.014 27.9334 200.014 28.6389C200.014 29.6467 200.385 30.4076 201.128 30.9216C201.87 31.4356 202.816 31.6926 203.965 31.6926Z" fill="#3F3F3F"/>
<path d="M235.821 25.4794V12.0251H241.344V35.2451H235.989V31.1181H235.745C235.216 32.4182 234.346 33.4814 233.136 34.3078C231.936 35.1342 230.456 35.5474 228.697 35.5474C227.161 35.5474 225.803 35.2098 224.624 34.5346C223.454 33.8493 222.539 32.8566 221.878 31.5565C221.217 30.2464 220.886 28.6641 220.886 26.8097V12.0251H226.408V25.9632C226.408 27.4346 226.815 28.6036 227.629 29.4703C228.443 30.3371 229.51 30.7704 230.833 30.7704C231.646 30.7704 232.434 30.5739 233.197 30.1808C233.96 29.7878 234.585 29.2033 235.074 28.4273C235.572 27.6412 235.821 26.6585 235.821 25.4794Z" fill="#3F3F3F"/>
<path d="M252.974 21.6397V35.2451H247.452V12.0251H252.73V15.9707H253.005C253.544 14.6706 254.403 13.6376 255.583 12.8717C256.773 12.1058 258.243 11.7228 259.992 11.7228C261.609 11.7228 263.018 12.0655 264.218 12.7508C265.428 13.4361 266.364 14.4288 267.025 15.7288C267.696 17.0289 268.026 18.6061 268.016 20.4605V35.2451H262.494V21.3071C262.494 19.755 262.087 18.5406 261.273 17.6638C260.47 16.787 259.356 16.3486 257.932 16.3486C256.966 16.3486 256.107 16.5603 255.354 16.9836C254.612 17.3968 254.027 17.9964 253.6 18.7825C253.183 19.5686 252.974 20.521 252.974 21.6397Z" fill="#3F3F3F"/>
<path d="M284.281 35.6986C281.942 35.6986 279.933 35.1897 278.255 34.1718C276.587 33.1539 275.301 31.748 274.395 29.9541C273.501 28.1501 273.053 26.074 273.053 23.7258C273.053 21.3675 273.511 19.2864 274.426 17.4824C275.341 15.6684 276.633 14.2574 278.301 13.2496C279.979 12.2317 281.962 11.7228 284.25 11.7228C286.152 11.7228 287.836 12.0705 289.3 12.7659C290.775 13.4512 291.949 14.4237 292.824 15.6835C293.699 16.9332 294.197 18.3945 294.319 20.0675H289.041C288.827 18.9488 288.319 18.0166 287.515 17.2708C286.722 16.5149 285.659 16.137 284.327 16.137C283.198 16.137 282.206 16.4394 281.352 17.044C280.498 17.6386 279.832 18.4953 279.354 19.614C278.886 20.7326 278.652 22.073 278.652 23.6351C278.652 25.2174 278.886 26.5779 279.354 27.7167C279.821 28.8455 280.477 29.7173 281.321 30.332C282.176 30.9367 283.178 31.239 284.327 31.239C285.14 31.239 285.868 31.0879 286.508 30.7855C287.159 30.4731 287.703 30.0246 288.141 29.4401C288.578 28.8556 288.878 28.1451 289.041 27.3086H294.319C294.187 28.9513 293.699 30.4076 292.855 31.6774C292.01 32.9372 290.861 33.9249 289.407 34.6404C287.952 35.3459 286.244 35.6986 284.281 35.6986Z" fill="#3F3F3F"/>
<path d="M304.806 21.6397V35.2451H299.283V4.28516H304.684V15.9707H304.958C305.508 14.6606 306.357 13.6276 307.506 12.8717C308.665 12.1058 310.14 11.7228 311.93 11.7228C313.557 11.7228 314.976 12.0604 316.186 12.7356C317.397 13.4109 318.332 14.3985 318.993 15.6986C319.665 16.9987 320 18.586 320 20.4605V35.2451H314.478V21.3071C314.478 19.745 314.071 18.5306 313.257 17.6638C312.454 16.787 311.325 16.3486 309.871 16.3486C308.894 16.3486 308.02 16.5603 307.247 16.9836C306.484 17.3968 305.884 17.9964 305.447 18.7825C305.019 19.5686 304.806 20.521 304.806 21.6397Z" fill="#3F3F3F"/>
<path d="M6.84189 6.81105C11.9399 0.338402 22.0144 -1.28142 30.539 0.940908C12.5595 1.23045 3.31736 20.7073 13.3345 26.8424C13.3345 26.8424 4.03496 25.9531 3.10501 18.7952C2.17546 11.6377 6.84189 6.81105 6.84189 6.81105Z" fill="url(#paint0_linear_1103_304)"/>
<path d="M6.84189 6.81105C6.84189 6.81105 2.17546 11.6377 3.10501 18.7952C4.03496 25.9531 13.3345 26.8424 13.3345 26.8424C10.4124 25.0529 9.13178 22.1277 9.22616 18.8752C6.22436 16.8265 4.37016 10.094 6.84189 6.81105Z" fill="url(#paint1_linear_1103_304)"/>
<path d="M38.6327 7.5197C31.1349 1.15982 17.8247 11.8344 15.17 17.3385C21.7524 7.50877 37.3427 12.3362 37.863 18.7956C41.4632 14.2413 38.6327 7.5197 38.6327 7.5197Z" fill="url(#paint2_linear_1103_304)"/>
<path d="M38.6327 7.5197C35.7131 5.04294 31.9119 5.15572 28.2019 6.53438C34.5883 4.929 37.3204 10.8389 35.1179 14.5355C36.7 15.7308 37.7357 17.2136 37.863 18.7956C41.4632 14.2413 38.6327 7.5197 38.6327 7.5197Z" fill="url(#paint3_linear_1103_304)"/>
<path d="M7.35324 33.957C11.1837 37.686 16.5067 40 22.3952 40C34.0582 40 43.5131 30.9304 43.5131 19.7427C43.5131 18.8565 43.1454 17.8204 43.0306 16.9643C27.5925 30.3548 12.0347 33.3837 7.35324 33.957Z" fill="url(#paint4_linear_1103_304)"/>
<path d="M8.44307 33.6319C12.0425 37.1361 17.0445 39.3109 22.5782 39.3109C33.5383 39.3109 42.4237 30.788 42.4237 20.2742C42.4237 19.4414 42.3619 18.6231 42.2536 17.8181C27.7458 30.402 12.8422 33.0934 8.44307 33.6319Z" fill="url(#paint5_linear_1103_304)"/>
<path d="M43.5131 19.7427C43.5131 18.8565 43.1454 17.8204 43.0306 16.9643C27.5925 30.3548 12.0347 33.3837 7.35324 33.957C8.34625 34.924 9.44014 35.7949 10.6178 36.5555C17.2573 36.1247 33.7661 29.5194 43.3862 21.9494C43.468 21.2244 43.5131 20.4888 43.5131 19.7427Z" fill="url(#paint6_linear_1103_304)"/>
<path d="M42.8855 16.4286C43.5659 17.9544 31.9309 23.8583 30.0195 24.7875C16.2341 31.4904 3.26732 34.3031 1.05757 31.0701C0.300102 29.9623 0.944476 28.3245 2.73237 26.3804C0.00476211 28.7877 -0.579813 30.9249 0.531165 32.6193C3.96132 37.8518 17.1059 35.8016 30.4462 29.3153C36.7058 26.2715 43.3325 24.1065 42.8855 16.4286Z" fill="url(#paint7_linear_1103_304)"/>
<path d="M35.0911 5.76759C36.5987 6.05206 38.5172 7.17708 38.2397 8.9245C38.1779 9.31434 38.1588 9.71042 38.0087 10.078C33.7869 20.4256 17.7226 28.6402 9.0968 23.6016C4.64923 21.0039 2.11403 12.5146 6.84189 6.81105C-0.0928707 14.3611 0.555981 24.3505 4.31728 28.5641C8.96825 33.774 26.5035 27.6443 43.0306 16.9643C43.0306 13.8749 40.5719 6.79349 35.0911 5.76759Z" fill="url(#paint8_linear_1103_304)"/>
<defs>
<linearGradient id="paint0_linear_1103_304" x1="18.0058" y1="40" x2="31.8402" y2="37.6257" gradientUnits="userSpaceOnUse">
<stop stop-color="#894CFC"/>
<stop offset="1" stop-color="#7336E4"/>
</linearGradient>
<linearGradient id="paint1_linear_1103_304" x1="18.0058" y1="40" x2="31.8402" y2="37.6257" gradientUnits="userSpaceOnUse">
<stop stop-color="#894CFC"/>
<stop offset="1" stop-color="#7336E4"/>
</linearGradient>
<linearGradient id="paint2_linear_1103_304" x1="18.0058" y1="40" x2="31.8402" y2="37.6257" gradientUnits="userSpaceOnUse">
<stop stop-color="#894CFC"/>
<stop offset="1" stop-color="#7336E4"/>
</linearGradient>
<linearGradient id="paint3_linear_1103_304" x1="18.0058" y1="40" x2="31.8402" y2="37.6257" gradientUnits="userSpaceOnUse">
<stop stop-color="#894CFC"/>
<stop offset="1" stop-color="#7336E4"/>
</linearGradient>
<linearGradient id="paint4_linear_1103_304" x1="18.0058" y1="40" x2="31.8402" y2="37.6257" gradientUnits="userSpaceOnUse">
<stop stop-color="#894CFC"/>
<stop offset="1" stop-color="#7336E4"/>
</linearGradient>
<linearGradient id="paint5_linear_1103_304" x1="18.0058" y1="40" x2="31.8402" y2="37.6257" gradientUnits="userSpaceOnUse">
<stop stop-color="#894CFC"/>
<stop offset="1" stop-color="#7336E4"/>
</linearGradient>
<linearGradient id="paint6_linear_1103_304" x1="18.0058" y1="40" x2="31.8402" y2="37.6257" gradientUnits="userSpaceOnUse">
<stop stop-color="#894CFC"/>
<stop offset="1" stop-color="#7336E4"/>
</linearGradient>
<linearGradient id="paint7_linear_1103_304" x1="18.0058" y1="40" x2="31.8402" y2="37.6257" gradientUnits="userSpaceOnUse">
<stop stop-color="#894CFC"/>
<stop offset="1" stop-color="#7336E4"/>
</linearGradient>
<linearGradient id="paint8_linear_1103_304" x1="18.0058" y1="40" x2="31.8402" y2="37.6257" gradientUnits="userSpaceOnUse">
<stop stop-color="#894CFC"/>
<stop offset="1" stop-color="#7336E4"/>
</linearGradient>
</defs>
</svg>
