<svg width="227" height="28" viewBox="0 0 227 28" fill="none" xmlns="http://www.w3.org/2000/svg">
<path d="M47 24.672V3H60.9779V6.29101H50.8932V12.1746H60.2538V15.4656H50.8932V21.381H61.0618V24.672H47Z" fill="#3F3F3F"/>
<path d="M68.8762 15.1481V24.672H65.0774V8.41799H68.7083V11.1799H68.8972C69.268 10.2698 69.8591 9.54674 70.6706 9.01058C71.4892 8.47443 72.5001 8.20635 73.7034 8.20635C74.8157 8.20635 75.7847 8.44621 76.6102 8.92593C77.4427 9.40564 78.0863 10.1005 78.541 11.0106C79.0028 11.9206 79.2301 13.0247 79.2231 14.3228V24.672H75.4244V14.9153C75.4244 13.8289 75.1445 12.9788 74.5849 12.3651C74.0322 11.7513 73.2661 11.4444 72.2867 11.4444C71.6221 11.4444 71.0309 11.5926 70.5132 11.8889C70.0025 12.1781 69.6003 12.5979 69.3064 13.1481C69.0196 13.6984 68.8762 14.3651 68.8762 15.1481Z" fill="#3F3F3F"/>
<path d="M91.4292 8.41799V11.381H82.1631V8.41799H91.4292ZM84.4508 4.52381H88.2496V19.7831C88.2496 20.2981 88.3265 20.6931 88.4804 20.9683C88.6413 21.2363 88.8512 21.4198 89.1101 21.5185C89.3689 21.6173 89.6557 21.6667 89.9706 21.6667C90.2084 21.6667 90.4253 21.649 90.6212 21.6138C90.8241 21.5785 90.978 21.5467 91.0829 21.5185L91.723 24.5132C91.5202 24.5838 91.2298 24.6614 90.8521 24.746C90.4813 24.8307 90.0265 24.8801 89.4878 24.8942C88.5364 24.9224 87.6794 24.7778 86.9168 24.4603C86.1543 24.1358 85.5491 23.6349 85.1014 22.9577C84.6607 22.2804 84.4438 21.4339 84.4508 20.418V4.52381Z" fill="#3F3F3F"/>
<path d="M94.9017 24.672V8.41799H98.5851V11.127H98.753C99.0468 10.1887 99.5505 9.46561 100.264 8.95767C100.985 8.44268 101.807 8.18519 102.73 8.18519C102.94 8.18519 103.174 8.19577 103.433 8.21693C103.699 8.23104 103.919 8.25573 104.094 8.29101V11.8148C103.933 11.7584 103.678 11.709 103.328 11.6667C102.986 11.6173 102.653 11.5926 102.331 11.5926C101.639 11.5926 101.016 11.7443 100.464 12.0476C99.9178 12.3439 99.4876 12.7566 99.1728 13.2857C98.8579 13.8148 98.7005 14.425 98.7005 15.1164V24.672H94.9017Z" fill="#3F3F3F"/>
<path d="M113.281 24.9894C111.707 24.9894 110.343 24.6402 109.188 23.9418C108.034 23.2434 107.138 22.2663 106.502 21.0106C105.872 19.7549 105.557 18.2875 105.557 16.6085C105.557 14.9295 105.872 13.4586 106.502 12.1958C107.138 10.933 108.034 9.95238 109.188 9.25397C110.343 8.55556 111.707 8.20635 113.281 8.20635C114.855 8.20635 116.219 8.55556 117.373 9.25397C118.528 9.95238 119.42 10.933 120.049 12.1958C120.686 13.4586 121.004 14.9295 121.004 16.6085C121.004 18.2875 120.686 19.7549 120.049 21.0106C119.42 22.2663 118.528 23.2434 117.373 23.9418C116.219 24.6402 114.855 24.9894 113.281 24.9894ZM113.302 21.9206C114.155 21.9206 114.869 21.6843 115.443 21.2116C116.016 20.7319 116.443 20.0899 116.723 19.2857C117.01 18.4815 117.153 17.5855 117.153 16.5979C117.153 15.6032 117.01 14.7037 116.723 13.8995C116.443 13.0882 116.016 12.4427 115.443 11.963C114.869 11.4832 114.155 11.2434 113.302 11.2434C112.427 11.2434 111.7 11.4832 111.119 11.963C110.545 12.4427 110.115 13.0882 109.828 13.8995C109.549 14.7037 109.409 15.6032 109.409 16.5979C109.409 17.5855 109.549 18.4815 109.828 19.2857C110.115 20.0899 110.545 20.7319 111.119 21.2116C111.7 21.6843 112.427 21.9206 113.302 21.9206Z" fill="#3F3F3F"/>
<path d="M124.692 24.672V3H128.585V21.381H138.051V24.672H124.692Z" fill="#3F3F3F"/>
<path d="M146.196 25C145.174 25 144.254 24.8166 143.436 24.4497C142.624 24.0758 141.981 23.5256 141.505 22.7989C141.036 22.0723 140.802 21.1764 140.802 20.1111C140.802 19.194 140.97 18.4356 141.305 17.836C141.641 17.2363 142.1 16.7566 142.68 16.3968C143.261 16.037 143.915 15.7654 144.643 15.582C145.377 15.3915 146.136 15.254 146.92 15.1693C147.864 15.0705 148.63 14.9824 149.218 14.9048C149.806 14.8201 150.232 14.6931 150.498 14.5238C150.771 14.3474 150.907 14.0758 150.907 13.709V13.6455C150.907 12.8483 150.673 12.231 150.204 11.7937C149.736 11.3563 149.06 11.1376 148.179 11.1376C147.249 11.1376 146.51 11.3422 145.965 11.7513C145.426 12.1605 145.062 12.6437 144.873 13.2011L141.326 12.6931C141.606 11.7055 142.068 10.8801 142.712 10.2169C143.355 9.54674 144.142 9.04586 145.073 8.71429C146.003 8.37566 147.032 8.20635 148.158 8.20635C148.935 8.20635 149.708 8.29806 150.477 8.48148C151.247 8.6649 151.95 8.96825 152.586 9.39153C153.223 9.80776 153.734 10.3757 154.119 11.0952C154.51 11.8148 154.706 12.7143 154.706 13.7937V24.672H151.054V22.4392H150.928C150.698 22.8907 150.372 23.3139 149.952 23.709C149.54 24.097 149.019 24.4109 148.389 24.6508C147.766 24.8836 147.035 25 146.196 25ZM147.182 22.1852C147.945 22.1852 148.606 22.0335 149.165 21.7302C149.725 21.4198 150.155 21.0106 150.456 20.5026C150.764 19.9947 150.918 19.4409 150.918 18.8413V16.9259C150.799 17.0247 150.596 17.1164 150.309 17.2011C150.029 17.2857 149.715 17.3598 149.365 17.4233C149.015 17.4868 148.669 17.5432 148.326 17.5926C147.983 17.642 147.686 17.6843 147.434 17.7196C146.867 17.7972 146.36 17.9242 145.912 18.1005C145.465 18.2769 145.111 18.5238 144.852 18.8413C144.594 19.1517 144.464 19.5538 144.464 20.0476C144.464 20.7531 144.719 21.2857 145.23 21.6455C145.741 22.0053 146.392 22.1852 147.182 22.1852Z" fill="#3F3F3F"/>
<path d="M169.095 17.836V8.41799H172.894V24.672H169.21V21.7831H169.043C168.679 22.6931 168.081 23.4374 167.248 24.0159C166.423 24.5944 165.405 24.8836 164.194 24.8836C163.138 24.8836 162.204 24.6473 161.392 24.1746C160.588 23.6949 159.958 23 159.504 22.0899C159.049 21.1728 158.821 20.0653 158.821 18.7672V8.41799H162.62V18.1746C162.62 19.2046 162.9 20.0229 163.46 20.6296C164.019 21.2363 164.754 21.5397 165.663 21.5397C166.223 21.5397 166.765 21.4021 167.29 21.127C167.815 20.8519 168.245 20.4427 168.581 19.8995C168.924 19.3492 169.095 18.6614 169.095 17.836Z" fill="#3F3F3F"/>
<path d="M180.894 15.1481V24.672H177.096V8.41799H180.727V11.1799H180.915C181.286 10.2698 181.877 9.54674 182.689 9.01058C183.507 8.47443 184.518 8.20635 185.722 8.20635C186.834 8.20635 187.803 8.44621 188.628 8.92593C189.461 9.40564 190.105 10.1005 190.559 11.0106C191.021 11.9206 191.248 13.0247 191.241 14.3228V24.672H187.443V14.9153C187.443 13.8289 187.163 12.9788 186.603 12.3651C186.05 11.7513 185.284 11.4444 184.305 11.4444C183.64 11.4444 183.049 11.5926 182.531 11.8889C182.021 12.1781 181.618 12.5979 181.325 13.1481C181.038 13.6984 180.894 14.3651 180.894 15.1481Z" fill="#3F3F3F"/>
<path d="M202.43 24.9894C200.82 24.9894 199.439 24.6332 198.284 23.9206C197.137 23.2081 196.252 22.224 195.63 20.9683C195.014 19.7055 194.706 18.2522 194.706 16.6085C194.706 14.9577 195.021 13.5009 195.65 12.2381C196.28 10.9683 197.169 9.9806 198.316 9.27513C199.47 8.56261 200.834 8.20635 202.409 8.20635C203.717 8.20635 204.875 8.44974 205.882 8.93651C206.896 9.41623 207.704 10.097 208.306 10.9788C208.908 11.8536 209.251 12.8765 209.335 14.0476H205.704C205.557 13.2646 205.207 12.612 204.654 12.0899C204.109 11.5608 203.377 11.2963 202.461 11.2963C201.684 11.2963 201.002 11.5079 200.415 11.9312C199.827 12.3474 199.369 12.9471 199.04 13.7302C198.718 14.5132 198.557 15.4515 198.557 16.545C198.557 17.6526 198.718 18.6049 199.04 19.4021C199.362 20.1922 199.813 20.8025 200.394 21.2328C200.981 21.6561 201.67 21.8677 202.461 21.8677C203.021 21.8677 203.521 21.7619 203.962 21.5503C204.409 21.3316 204.784 21.0176 205.084 20.6085C205.385 20.1993 205.592 19.7019 205.704 19.1164H209.335C209.244 20.2663 208.908 21.2857 208.327 22.1746C207.746 23.0564 206.956 23.7478 205.955 24.2487C204.955 24.7425 203.78 24.9894 202.43 24.9894Z" fill="#3F3F3F"/>
<path d="M216.548 15.1481V24.672H212.749V3H216.464V11.1799H216.653C217.031 10.2628 217.615 9.53968 218.406 9.01058C219.203 8.47443 220.217 8.20635 221.449 8.20635C222.568 8.20635 223.544 8.44268 224.377 8.91534C225.209 9.38801 225.853 10.0794 226.307 10.9894C226.769 11.8995 227 13.0106 227 14.3228V24.672H223.201V14.9153C223.201 13.8219 222.921 12.9718 222.362 12.3651C221.809 11.7513 221.032 11.4444 220.032 11.4444C219.36 11.4444 218.759 11.5926 218.227 11.8889C217.702 12.1781 217.29 12.5979 216.989 13.1481C216.695 13.6984 216.548 14.3651 216.548 15.1481Z" fill="#3F3F3F"/>
<path d="M4.70639 4.76773C8.21323 0.236881 15.1432 -0.896993 21.0071 0.658636C8.63941 0.861318 2.28194 14.4951 9.17249 18.7897C9.17249 18.7897 2.77556 18.1672 2.13587 13.1567C1.49645 8.14641 4.70639 4.76773 4.70639 4.76773Z" fill="url(#paint0_linear_944_423)"/>
<path d="M4.70639 4.76773C4.70639 4.76773 1.49645 8.14641 2.13587 13.1567C2.77556 18.1672 9.17249 18.7897 9.17249 18.7897C7.16247 17.537 6.28156 15.4894 6.34648 13.2127C4.28161 11.7786 3.00614 7.0658 4.70639 4.76773Z" fill="url(#paint1_linear_944_423)"/>
<path d="M26.5746 5.26379C21.4171 0.811876 12.2613 8.28408 10.4351 12.137C14.963 5.25614 25.6873 8.63536 26.0452 13.1569C28.5217 9.96892 26.5746 5.26379 26.5746 5.26379Z" fill="url(#paint2_linear_944_423)"/>
<path d="M26.5746 5.26379C24.5663 3.53006 21.9515 3.609 19.3995 4.57407C23.7925 3.4503 25.6719 7.58726 24.1569 10.1749C25.2451 11.0116 25.9576 12.0496 26.0452 13.1569C28.5217 9.96892 26.5746 5.26379 26.5746 5.26379Z" fill="url(#paint3_linear_944_423)"/>
<path d="M5.05814 23.7699C7.69303 26.3802 11.3546 28 15.4052 28C23.4279 28 29.9317 21.6513 29.9317 13.8199C29.9317 13.1995 29.6788 12.4743 29.5999 11.875C18.9803 21.2484 8.27843 23.3686 5.05814 23.7699Z" fill="url(#paint4_linear_944_423)"/>
<path d="M5.80781 23.5424C8.28375 25.9953 11.7246 27.5176 15.5311 27.5176C23.0703 27.5176 29.1824 21.5516 29.1824 14.1919C29.1824 13.609 29.1398 13.0362 29.0654 12.4727C19.0858 21.2814 8.8339 23.1654 5.80781 23.5424Z" fill="url(#paint5_linear_944_423)"/>
<path d="M29.9317 13.8199C29.9317 13.1995 29.6788 12.4743 29.5999 11.875C18.9803 21.2484 8.27843 23.3686 5.05814 23.7699C5.74121 24.4468 6.49367 25.0565 7.30378 25.5888C11.8709 25.2873 23.227 20.6636 29.8444 15.3646C29.9007 14.8571 29.9317 14.3422 29.9317 13.8199Z" fill="url(#paint6_linear_944_423)"/>
<path d="M29.5 11.5C29.9681 12.5681 21.9646 16.7008 20.6498 17.3513C11.1671 22.0433 2.24752 24.0122 0.727479 21.7491C0.206434 20.9736 0.649685 19.8271 1.87954 18.4663C0.00327575 20.1514 -0.398841 21.6475 0.365377 22.8335C2.72491 26.4963 11.7668 25.0611 20.9433 20.5207C25.2492 18.3901 29.8075 16.8745 29.5 11.5Z" fill="url(#paint7_linear_944_423)"/>
<path d="M24.1384 4.03731C25.1755 4.23645 26.4951 5.02396 26.3043 6.24715C26.2618 6.52004 26.2486 6.79729 26.1454 7.05461C23.2413 14.2979 12.191 20.0481 6.25749 16.5211C3.1981 14.7027 1.4542 8.7602 4.70639 4.76773C-0.0638838 10.0528 0.382448 17.0453 2.96976 19.9949C6.16907 23.6418 18.2312 19.351 29.5999 11.875C29.5999 9.71242 27.9086 4.75544 24.1384 4.03731Z" fill="url(#paint8_linear_944_423)"/>
<defs>
<linearGradient id="paint0_linear_944_423" x1="12.3858" y1="28" x2="21.9115" y2="26.3935" gradientUnits="userSpaceOnUse">
<stop stop-color="#894CFC"/>
<stop offset="1" stop-color="#7336E4"/>
</linearGradient>
<linearGradient id="paint1_linear_944_423" x1="12.3858" y1="28" x2="21.9115" y2="26.3935" gradientUnits="userSpaceOnUse">
<stop stop-color="#894CFC"/>
<stop offset="1" stop-color="#7336E4"/>
</linearGradient>
<linearGradient id="paint2_linear_944_423" x1="12.3858" y1="28" x2="21.9115" y2="26.3935" gradientUnits="userSpaceOnUse">
<stop stop-color="#894CFC"/>
<stop offset="1" stop-color="#7336E4"/>
</linearGradient>
<linearGradient id="paint3_linear_944_423" x1="12.3858" y1="28" x2="21.9115" y2="26.3935" gradientUnits="userSpaceOnUse">
<stop stop-color="#894CFC"/>
<stop offset="1" stop-color="#7336E4"/>
</linearGradient>
<linearGradient id="paint4_linear_944_423" x1="12.3858" y1="28" x2="21.9115" y2="26.3935" gradientUnits="userSpaceOnUse">
<stop stop-color="#894CFC"/>
<stop offset="1" stop-color="#7336E4"/>
</linearGradient>
<linearGradient id="paint5_linear_944_423" x1="12.3858" y1="28" x2="21.9115" y2="26.3935" gradientUnits="userSpaceOnUse">
<stop stop-color="#894CFC"/>
<stop offset="1" stop-color="#7336E4"/>
</linearGradient>
<linearGradient id="paint6_linear_944_423" x1="12.3858" y1="28" x2="21.9115" y2="26.3935" gradientUnits="userSpaceOnUse">
<stop stop-color="#894CFC"/>
<stop offset="1" stop-color="#7336E4"/>
</linearGradient>
<linearGradient id="paint7_linear_944_423" x1="12.3858" y1="28" x2="21.9115" y2="26.3935" gradientUnits="userSpaceOnUse">
<stop stop-color="#894CFC"/>
<stop offset="1" stop-color="#7336E4"/>
</linearGradient>
<linearGradient id="paint8_linear_944_423" x1="12.3858" y1="28" x2="21.9115" y2="26.3935" gradientUnits="userSpaceOnUse">
<stop stop-color="#894CFC"/>
<stop offset="1" stop-color="#7336E4"/>
</linearGradient>
</defs>
</svg>
