<svg width="105" height="72" viewBox="0 0 105 72" fill="none" xmlns="http://www.w3.org/2000/svg">
<path d="M9.32176 65.7934C3.2564 60.0343 0 53.575 0 43.1042C0 24.679 14.4683 8.16497 35.5084 0L40.767 7.25417C21.1284 16.7509 17.2891 29.0749 15.7579 36.8448C18.9201 35.3815 23.0597 34.8709 27.1171 35.2078C37.7401 36.0867 46.1137 43.8833 46.1137 53.575C46.1137 58.4616 43.9423 63.148 40.0772 66.6035C36.212 70.0588 30.9697 72 25.5037 72C19.1851 72 13.1434 69.4206 9.32176 65.7934ZM68.2078 65.7934C62.1427 60.0343 58.8861 53.575 58.8861 43.1042C58.8861 24.679 73.3544 8.16497 94.3944 0L99.653 7.25417C80.0144 16.7509 76.1751 29.0749 74.644 36.8448C77.8062 35.3815 81.9461 34.8709 86.0032 35.2078C96.6264 36.0867 105 43.8833 105 53.575C105 58.4616 102.829 63.148 98.9633 66.6035C95.0983 70.0588 89.8558 72 84.3898 72C78.0712 72 72.0295 69.4206 68.2078 65.7934Z" fill="#7839EE" fill-opacity="0.05"/>
</svg>
